<svg id="Layer_1" data-name="Layer 1" xmlns="http://www.w3.org/2000/svg" viewBox="0 0 75 75"><defs><style>.cls-1{fill:#ff7f32;}</style></defs><title>Wrench Icon</title><path class="cls-1" d="M74.33,62.58,52.27,33.75c4.09-9.8,2.93-20.53-4-27.42C42.24.26,33.17-1.38,24.39,1.13A3.29,3.29,0,0,0,23,6.63L34.33,18a3.3,3.3,0,0,1,1,2.33,3.33,3.33,0,0,1-1,2.33L22.66,34.32a3.29,3.29,0,0,1-4.66,0L6.63,23a3.29,3.29,0,0,0-5.5,1.43c-2.51,8.78-.87,17.85,5.2,23.93,6.89,6.88,17.62,8,27.42,4l28.84,22A3.28,3.28,0,0,0,66.92,74L74,66.92A3.31,3.31,0,0,0,74.33,62.58Z"/></svg>