<svg id="Layer_1" data-name="Layer 1" xmlns="http://www.w3.org/2000/svg" viewBox="0 0 75 68.72"><defs><style>.cls-1{fill:#ff7f32;fill-rule:evenodd;}</style></defs><title>Hands Shaking Icon</title><path class="cls-1" d="M46.07,17.73a5.67,5.67,0,0,1,1.86,1.53q9.68,9.81,19.33,19.63c1.67,1.7,2,3.08,1,4.56a5,5,0,0,1-5.23,1.82,4.36,4.36,0,0,1-1.67-1.34L48.26,30.69A14.18,14.18,0,0,0,47,29.5a1,1,0,0,0-1.39,0A1.08,1.08,0,0,0,45.34,31a10.82,10.82,0,0,0,1.15,1.29c4.58,4.63,9.13,9.28,13.76,13.85a3.51,3.51,0,0,1,1,4.11,3.92,3.92,0,0,1-3.58,2.39,3.27,3.27,0,0,1-2.81-1.33q-6.8-7-13.64-14c-.4-.41-.8-.84-1.22-1.23A1.19,1.19,0,0,0,38.24,36a1.2,1.2,0,0,0,0,1.76c.36.45.79.85,1.19,1.26,4.59,4.71,9.2,9.41,13.78,14.13a3.25,3.25,0,0,1,.81,4.11,3.77,3.77,0,0,1-4.79,1.85,1.31,1.31,0,0,1-.81-1c-.86-3.68-3.16-5.72-6.87-6-1.07-4.92-1.91-5.72-7.17-6.77-.51-4.11-2.16-7.31-7.06-7-.62-.44-.54-1.08-.67-1.62-1.29-5.29-7-7-10.93-3.34-2,1.82-3.85,3.72-5.78,5.56a4.73,4.73,0,0,1-1.78,1.39,19.33,19.33,0,0,1-3.67-4.42A25.7,25.7,0,0,1,.26,17.72C1.66,7.84,10.63.21,20.62,0A22.4,22.4,0,0,1,36,5.39c-.24.93-1,1.35-1.51,1.9-3.76,3.7-7.46,7.47-11.34,11-3.7,3.41-3.54,7.78,1.92,10.24,4.19,1.89,8.07.84,11.57-1.84a42.76,42.76,0,0,0,3.52-3.22C42.09,21.61,44.05,19.69,46.07,17.73Z"/><path class="cls-1" d="M69.51,37.43c-.78-.22-1.21-.93-1.75-1.48q-9.68-9.8-19.33-19.61c-.35-.36-.71-.73-1.07-1.08a1.44,1.44,0,0,0-2.27,0c-.77.76-1.54,1.53-2.32,2.28-2.28,2.21-4.55,4.44-6.87,6.62a9.68,9.68,0,0,1-7,2.86,7.43,7.43,0,0,1-4.24-1.46c-2-1.42-2.13-2.95-.56-4.75.28-.33.61-.62.92-.92,4.33-4.25,8.65-8.51,13-12.74C44.09,1.29,51.33-.54,59.37,1.87s13,8,15,16c1.68,6.76.14,13-3.84,18.71C70.24,36.93,70,37.34,69.51,37.43Z"/><path class="cls-1" d="M38.9,52.05A2.59,2.59,0,0,1,38,54.31C35.51,56.85,33,59.39,30.64,62a2.06,2.06,0,0,1-2.51.59,6.2,6.2,0,0,1-4-3.66,2.37,2.37,0,0,1,.68-2.9q3.81-3.39,7.41-7a3.87,3.87,0,0,1,4.59-.71A3.47,3.47,0,0,1,38.9,52.05Z"/><path class="cls-1" d="M24.49,37.88a3.66,3.66,0,0,1-1.16,2.57c-2.5,2.39-5,4.78-7.48,7.22a2.25,2.25,0,0,1-2.57.53A5.55,5.55,0,0,1,9.7,44.41a2.28,2.28,0,0,1,.67-2.54c2.42-2.27,4.76-4.64,7.18-6.92A3.79,3.79,0,0,1,22,34.19,4.41,4.41,0,0,1,24.49,37.88Z"/><path class="cls-1" d="M31.83,45a2.6,2.6,0,0,1-.91,2c-2.69,2.52-5.37,5-8,7.58a2.3,2.3,0,0,1-2.37.61,4.74,4.74,0,0,1-3.15-2.44c-.94-1.79-.87-2.37.58-3.77q3.42-3.31,6.86-6.61a5,5,0,0,1,1.56-1.12C29.3,40,31.87,41.69,31.83,45Z"/><path class="cls-1" d="M36.53,68.71a4.38,4.38,0,0,1-4-1.77c-1.1-1.57-1-2.38.28-3.76q3.52-3.69,7.07-7.34a2.94,2.94,0,0,1,4.39-.33,4.05,4.05,0,0,1,.84,6,52.58,52.58,0,0,1-5.89,6A3.89,3.89,0,0,1,36.53,68.71Z"/></svg>