<svg id="Layer_1" data-name="Layer 1" xmlns="http://www.w3.org/2000/svg" viewBox="0 0 57.61 75"><defs><style>.cls-1{fill:#ff7f32;}</style></defs><title>Crossroad Sign Icon</title><path class="cls-1" d="M33.69,65.49V53.26l-9.78,3.26v9c-7.52.82-13,3.48-13,6.64,0,3.83,35.87,3.83,35.87,0C46.74,69,41.22,66.31,33.69,65.49Z"/><path class="cls-1" d="M56.3,36.52,47.61,30a3.32,3.32,0,0,0-2-.65h-12V22.83l-9.78,3.26v3.26H7.61a3.26,3.26,0,0,0-3.26,3.26v13a3.26,3.26,0,0,0,3.26,3.26h38a3.32,3.32,0,0,0,2-.65l8.69-6.52a3.26,3.26,0,0,0,0-5.22Z"/><path class="cls-1" d="M12,19.57H50a3.26,3.26,0,0,0,3.26-3.27v-13A3.26,3.26,0,0,0,50,0H12a3.27,3.27,0,0,0-2,.65L1.3,7.17a3.27,3.27,0,0,0,0,5.22L10,18.91A3.22,3.22,0,0,0,12,19.57Z"/></svg>