<svg id="Layer_1" data-name="Layer 1" xmlns="http://www.w3.org/2000/svg" viewBox="0 0 75 75"><defs><style>.cls-1{fill:#ff7f32;}.cls-2{fill:#fff;}.cls-3{fill:#12284c;}.cls-4{fill:#003e7e;}.cls-5{opacity:0.2;}</style></defs><title>form icon</title><g id="Notepad"><rect class="cls-1" y="4.69" width="75" height="70.31" rx="4.69"/><rect class="cls-2" x="4.69" y="9.38" width="65.63" height="60.94" rx="2.34"/><rect class="cls-3" x="21.09" width="32.81" height="14.06" rx="2.34"/><path class="cls-4" d="M25.39,22.7a1.68,1.68,0,0,0-2.37,0l-4.76,4.75-2.37-2.37a1.68,1.68,0,0,0-2.38,2.37L17.08,31a1.67,1.67,0,0,0,2.37,0l5.94-5.94A1.68,1.68,0,0,0,25.39,22.7Z"/><g class="cls-5"><rect x="30.47" y="37.5" width="30.47" height="2.34"/><rect x="30.47" y="44.53" width="30.47" height="2.34"/><rect x="30.47" y="23.44" width="30.47" height="2.34"/><rect x="30.47" y="30.47" width="30.47" height="2.34"/><rect x="30.47" y="51.56" width="30.47" height="2.34"/><rect x="30.47" y="58.59" width="30.47" height="2.34"/><rect x="14.06" y="51.56" width="9.38" height="9.38"/><rect x="14.06" y="37.5" width="9.38" height="9.38"/></g><path class="cls-2" d="M49.22,7a2.35,2.35,0,0,1-2.34,2.35H28.12A2.35,2.35,0,0,1,25.78,7h0a2.34,2.34,0,0,1,2.34-2.34H46.88A2.34,2.34,0,0,1,49.22,7Z"/></g></svg>