<svg id="Layer_1" data-name="Layer 1" xmlns="http://www.w3.org/2000/svg" viewBox="0 0 54 75"><defs><style>.cls-1{fill:#ff7f32;}</style></defs><title>Light Bulb Icon</title><path class="cls-1" d="M27,0C12.11,0,0,11.44,0,25.5A24.6,24.6,0,0,0,7,42.6a40.38,40.38,0,0,1,7.74,11.45v4.32L30,66H14.73v3.77A2.23,2.23,0,0,0,17,72h2.27a11.58,11.58,0,0,0,15.55,0h2.3a2.23,2.23,0,0,0,2.23-2.23V54A40.75,40.75,0,0,1,47,42.6a24.6,24.6,0,0,0,7-17.1C54,11.44,41.89,0,27,0Zm.12,54h-.18l-7.1-27H34.51ZM42.69,38.44A46.21,46.21,0,0,0,32.88,54H30.24l9.14-33H15.09l8.75,33h-2.7a46.37,46.37,0,0,0-9.82-15.55A18.67,18.67,0,0,1,6,25.5C6,14.75,15.42,6,27,6s21,8.75,21,19.5A18.66,18.66,0,0,1,42.69,38.44Z"/></svg>