<svg id="Layer_1" data-name="Layer 1" xmlns="http://www.w3.org/2000/svg" viewBox="0 0 56.93 75"><defs><style>.cls-1{fill:#12284c;}.cls-2{fill:#fff;}.cls-3{fill:#ff7f32;}.cls-4{opacity:0.1;}</style></defs><title>Lab Flask Icon</title><path class="cls-1" d="M37.8,16.41V4.69H19.05V16.41L.3,70.31C-.5,72.51.3,75,2.65,75H54.21c2.34,0,3.33-2,2.34-4.69Z"/><polygon class="cls-2" points="23.74 16.41 4.99 70.31 51.87 70.31 33.12 16.41 33.12 0 23.74 0 23.74 16.41"/><polygon class="cls-3" points="9.68 67.97 47.18 67.97 40.15 46.88 16.71 46.88 9.68 67.97"/><circle class="cls-3" cx="33.12" cy="42.19" r="2.34"/><circle class="cls-3" cx="26.08" cy="32.81" r="4.69"/><path class="cls-4" d="M21.4,32.81a4.69,4.69,0,0,0,8,3.32L22.77,29.5A4.66,4.66,0,0,0,21.4,32.81Z"/><path class="cls-4" d="M31.46,40.53a2.31,2.31,0,0,0-.69,1.66,2.35,2.35,0,0,0,2.35,2.34,2.3,2.3,0,0,0,1.65-.69Z"/><path class="cls-1" d="M23.74,0H14.37a2.35,2.35,0,1,0,0,4.69h9.37Z"/><path class="cls-1" d="M33.12,4.69h9.37a2.35,2.35,0,0,0,0-4.69H33.12Z"/></svg>