<svg xmlns="http://www.w3.org/2000/svg" viewBox="0 0 70.42 70.42"><defs><style>.cls-1{fill:#12284c;fill-rule:evenodd;}</style></defs><title>Asset 10</title><g id="Layer_2" data-name="Layer 2"><g id="page_content" data-name="page content"><path class="cls-1" d="M44,63.82v-6.6H26.41v6.6a31.65,31.65,0,0,0-6.6,4.4c-2.2,2.2,2.2,2.2,2.2,2.2H48.42s4.4,0,2.2-2.2A31.61,31.61,0,0,0,44,63.82ZM66,0H4.4A4.4,4.4,0,0,0,0,4.4V50.62A4.4,4.4,0,0,0,4.4,55H66a4.4,4.4,0,0,0,4.4-4.4V4.4A4.4,4.4,0,0,0,66,0Zm0,39.61a4.4,4.4,0,0,1-4.4,4.4H8.8a4.4,4.4,0,0,1-4.4-4.4V8.8A4.4,4.4,0,0,1,8.8,4.4H61.62A4.4,4.4,0,0,1,66,8.8Z"/></g></g></svg>