<svg id="Layer_1" data-name="Layer 1" xmlns="http://www.w3.org/2000/svg" viewBox="0 0 64.29 75"><defs><style>.cls-1{fill:#003e7e;}.cls-2{fill:#ff7f32;}.cls-3{fill:#12284c;}</style></defs><title>Megaphone Icon</title><path class="cls-1" d="M24.1,57.23,13.85,60a10.72,10.72,0,0,1-1.3.17l9.19,12.61a6,6,0,0,0,5.9,2.09l4.89-1.31c4-1.08,4.81-4.26,1.72-7.07Z"/><path class="cls-2" d="M62.39,26.2C58,9.82,47.07-1.49,40.92.16c-1.85.5-3.49,2.25-4.76,4.89V5l0,.09c-.17.36-.32.74-.48,1.13a35.76,35.76,0,0,1-6.43,9.63A31.34,31.34,0,0,1,15.81,24l-.18.05L5,26.91A6.12,6.12,0,0,0,1.48,30,20.08,20.08,0,0,0,7.75,53.39a6.13,6.13,0,0,0,4.57.91l9.54-2.56c-3.14-5.48-5.46-13.49-2.71-20.65.62,7.35,4.85,16,10.31,19.65,3.2-.38,4.83-.37,9.36,1A35.73,35.73,0,0,1,49.2,56.86c.33.25.66.51,1,.73l.08.07v0C52.67,59.29,55,60,56.82,59.49,63,57.84,66.78,42.58,62.39,26.2ZM55.52,52.74c-3.74,1-11-8.11-14.39-20.84s-1.7-24.25,2-25.25,11,8.12,14.39,20.85S59.26,51.74,55.52,52.74Z"/><path class="cls-3" d="M44.33,22.46a29.06,29.06,0,0,0,4.29,16c3.11-1.27,4.72-5.35,3.6-9.54S47.66,22,44.33,22.46Z"/></svg>