<?xml version="1.0" encoding="utf-8"?>
<!-- Generator: Adobe Illustrator 24.0.1, SVG Export Plug-In . SVG Version: 6.00 Build 0)  -->
<svg version="1.1" id="Layer_1" xmlns="http://www.w3.org/2000/svg" xmlns:xlink="http://www.w3.org/1999/xlink" x="0px" y="0px"
	 viewBox="0 0 150 56" style="enable-background:new 0 0 150 56;" xml:space="preserve">
<style type="text/css">
	.st0{fill:#FF7F32;}
	.st1{fill:#FFFFFF;}
</style>
<title>visitorTypeIcons</title>
<path class="st0" d="M0,27.7c0.4-0.2,0.6-0.8,1.2-0.9c0.3,0,0.5,0.2,0.8,0.3c0.8,0.4,1.8,0,2.2-0.9c0.1-0.2,0.1-0.4,0.1-0.7
	c0-0.9,0.5-1.8,1.3-2.3c0.2-0.1,0.3-0.2,0.5-0.4c0.9-1.4,2.6-1.7,3.9-2.5c0.3-0.1,0.7-0.2,1-0.3c0.8-0.1,1.7,0.1,2.3,0.7
	c0.8-0.7,1.8-1.2,2.8-1.6c0.5-0.1,0.8-0.4,1-0.9c0.3-0.5,0.7-1,1.3-1.1c0.9-0.3,1.8-0.6,2.7-0.9c0.7-0.1,1.4-0.5,2-1
	c-0.3-1.9,0.6-2.8,2.5-2.4c0.4-0.6,1-1.2,1.6-1.6c0.7-0.6,1-0.6,2-0.1c0.3,0.4-0.4,1,0.2,1.4c1-0.3,1.9-1,2.4-1.9
	c0.1-0.3,0.3-0.5,0.6-0.6c1.4-0.4,2.7-1.1,4.2-1c0.1,0,0.2,0,0.2,0.1c0.3,0.2,0.1,0.8,0.6,1c0.1,0,0.2-0.1,0.3-0.1
	c0.1,0,0.1-0.1,0.2-0.2c0.7-0.7,1.2-1.6,1.5-2.6c0.1-0.5,0.7-0.8,1.1-1.2c0.6-0.8,1.6-1.2,2.6-1c0.4-0.6,0.2-1.2,0.5-1.8
	c0.3-0.5,0.4-1.1,0.4-1.7C43.9,0.4,44.3,0,45.5,0c2.1,0.1,4.3,0.2,6.4,0.3c3.9,0.2,7.8,0.3,11.7,0.5C69,1.2,74.5,0.9,79.9,1
	c3.1,0,6.3,0,9.4,0c7.2,0,14.5,0.1,21.8-0.1c9.2-0.2,18.4-0.1,27.6-0.2c0.5,0,1-0.2,1.4,0.3c0.1,0.2,0.3,0,0.4,0
	c0.8-0.1,1.5,0,2.3,0.1c0.1,0.7,0.2,1.3,0.3,2c0,0.3-0.5,0-0.6,0.4c-0.3-0.2-0.1-0.5-0.4-0.7l-1.6-0.1c0,0.5,0.1,0.9,0.4,1.3
	c0.7-0.5,0.8-0.5,1,0.4c0.2,1.2,0.7,2.4,1.3,3.5c0.4,0.9,0.7,1.8,0.9,2.7c0.1,0.2-0.2,0.5-0.5,0.4c-0.5-0.2-0.9-0.4-0.9-1
	c-0.1-0.8-0.4-1.6-1-2.2l0.1,1.5c-0.7,0.1-1.3-0.2-1.8-0.7c-0.5-0.7-1.2-1-1.6-1.7c0,0-0.1,0-0.4,0c0.4,0.4,0.3,1,0.9,1.2
	c0.2,0.1,0.3,0.4,0.4,0.6c0.3,0.8,0.2,1.1-0.7,1.1c-0.5,0-1,0.2-1.4,0.5c-0.3,0.4-1,0.5-1.4,0.2c0,0,0,0-0.1,0
	c-0.2-0.1-0.3-0.2-0.5-0.2c-0.3,0.1-0.2,0.7-0.7,0.6l-1-0.1c-0.5,1.8-2.1,2.2-3.6,0.9c-0.4,0.2-0.9,0.4-1.2-0.2
	c-0.3,0.5,0.3,0.6,0.3,1s-0.7,0.7-0.8,1.3c1.5,0,2.9-0.3,4.3-0.9c0.3-0.2,0.7-0.3,1-0.3c0.5,0,0.5,0.4,0.7,0.7s0.4,0.2,0.6,0.3
	c1.5-1.3,3.7-1.5,5.4-0.6c0.3,1-0.5,1.6-0.8,2.4c0.3,0.5,0.4,1.1,0.2,1.7c-0.1,0.5-0.4,1.3,0.4,1.6c0.4-1.2,0.5-2.4,0.4-3.7
	c0-0.8,0.7-0.9,1.1-1.4l-0.4-0.6c0.5-0.7,1.3-0.2,1.9-0.3s0.9,0.4,1.1,0.8c0.4,0.7,0.8,1.5,1.1,2.3c0.1,0.1,0.1,0.3,0.1,0.5
	c-0.1,0.5-0.1,1,0.1,1.4c0.2,0.5,0,1.1-0.5,1.3c0,0,0,0-0.1,0c0.4,0.6,0.2,1.5-0.4,1.9c-0.4,0.4-0.9,0.4-1.8-0.1
	c-0.4,0.9-1.4,1.2-1.7,2.1c-0.2,0.4-0.4,0.8-0.6,1.2s-0.4,0.4-0.8,0.2c0.1,1.3-1.1,1.2-1.7,1.9l-1.5-0.5c-0.3,0.2-0.2,0.9-0.9,0.6
	c0.1-0.4-0.2-0.9-0.6-1.1c-0.1,0.3-0.1,0.6-0.6,0.8c-0.3,0-0.5-0.5-0.9-0.4c-0.3-0.6,0.2-0.9,0.2-1.2l-0.9,1
	c-0.8-0.6-1.7-0.9-2.7-0.9c-0.8-0.1-1.4-0.6-2.3-0.5c-0.3,0-0.5-0.1-0.8-0.3c-0.5-0.4-1.1-0.5-1.7-0.3c0.5,0,1.1,0.3,1.5,0.6
	c0.4,0.3,0.8,0.4,1.3,0.5c0.5,0,0.5,0.4,0.5,0.8c1.4-0.4,2.4,0.8,3.6,0.6c0.1,0.4,0.3,0.7,0.6,0.9c-0.6,0.7-0.6,1.7-1.6,2
	c0.2,0.3,0.4,0.7,0,1c-0.6,0.5-0.9,1.3-1.7,1.7s-1.3,0.8-2,1.2c-0.5,0.3-1.1,0.3-1.5-0.1c-0.5-0.4-1-0.7-1.5-1.1
	c-0.1-0.1-0.3-0.2-0.5-0.1c0.3,0.9,1,1.6,2,1.8c0.5,0.1,1.1,0.3,1.6,0.5c0.5-0.4,1-0.7,1.6-1.1c0.4-0.2,0.7-0.5,1.2-0.2
	c0.2,0.1,0.4,0,0.5-0.1c0.3-0.2,0.6-0.3,1-0.3c0.4-0.4,0.4-0.9,0.4-1.4c1,0,1.3,0.3,1.2,1c-0.1,0.4,0,0.9,0.2,1.3
	c0.2-0.3,0.5-0.6,0.7-0.9c0.4-0.6,0.4-0.6,1.1-0.3c0.3,0.2,0.6,0.3,1,0.4c-0.1,0.5-0.2,0.5-0.6,0.5c-0.1,0.3,0.3,0.3,0.3,0.4
	c-0.1,0.7-0.9,0.8-0.8,1.6c0.2,0.1,0.3-0.2,0.5-0.3c0.9-0.9,1.8-1.7,2.7-2.4c0.4-0.3,0.6-0.7,0.7-1.2c0.9,0.1,0.9,0.1,1.3-0.9
	c1.3-0.4,2.5-1.2,3.9-1.6c0,0.5-0.3,0.6-0.6,0.8c-0.7,0.3-1.4,0.6-2,1c-1.8,1.4-3.8,2.6-5.5,4.3c-2,1.8-3.6,3.9-4.8,6.2
	c-0.1,0.1-0.1,0.2-0.2,0.3c-0.4-0.3-0.7-0.7-0.7-1.2c-0.5-0.4-1.4-0.4-1.7-1.2c-0.1,0.3-0.4,0.4-0.7,0.4c-1.1-0.1-2.2-0.1-3.3,0.2
	c-0.3,0-0.5,0.1-0.8,0.1c-0.7,0-1.4,0.2-2,0.6c-0.1,0.1-0.4,0.2-0.5,0.1c-0.1-0.2,0.1-0.3,0.2-0.5c-0.2-0.2-0.5-0.1-0.7-0.4
	c-0.5,1.4-2,1.7-2.7,2.8c-0.3,0.5-0.7,0.1-1.1,0c-0.2,0.2-0.2,0.7-0.6,0.6c-1-0.1-1.6,0.7-2.3,1.1c-0.7,0.4-1.4,0.9-1.9,1.6
	c-0.3,0.4-0.8,0.7-1.4,0.7c-0.1,0.7-0.4,1.4-0.9,1.9c-0.8,0.9-1.1,2.2-1.8,3.2c-0.2,0.2-0.1,0.6-0.1,0.9c0,0.7-0.2,1.5-0.7,2.1
	c-0.4,0.6-0.6,1.4-0.5,2.1h-0.2c-0.6-0.6-1.2-1-2-1.2c-0.4-0.1-0.8-0.3-1.2-0.2c-0.3,0.1-0.6,0-0.8-0.2c-0.1-0.1-0.3-0.2-0.4,0
	c-0.4,0.4-0.9,0.2-1.3,0.3s-1-0.1-1.5,0.3c-0.1,0.1-0.2,0.1-0.3,0.1c-0.6-0.2-1.3,0.1-1.7,0.6c-0.5,0-1.1-0.2-1.4-0.6
	c-3.1-3.2-6.2-6.5-9.3-9.7c-2.6-2.7-5.2-5.4-7.7-8.1c-0.6-0.7-1.5-1.1-2.4-1c-5.4,0-10.8,0-16.2,0c-0.5,0.1-1,0-1.4-0.2
	c-0.1-0.7-0.1-1.4-0.1-2.1c0-0.4,0-0.8-0.5-1c-0.6-0.3-1-0.8-1.1-1.5c0-0.1-0.2-0.3-0.2-0.4c-0.5-0.1-0.7,0.2-1,0.4
	c-0.3,0.2-0.6,0.3-1,0.3c-0.4,0-0.7-0.3-0.7-0.7c0-0.1,0-0.1,0-0.2c0.2-1,0-1.2-1-1.2c-1.4,0-2.8,0-4.3-0.1c-2.5-0.2-5-0.2-7.5-0.2
	c-0.4,0-0.9-0.1-1.3-0.2c-2-0.5-3.9-0.2-5.9-0.2c-0.3,0-0.7,0-1-0.1c-0.7-0.3-1.6-0.2-2.1,0.4c-0.5,0.5-1,0-1.5-0.3
	c-1,0.8-2.3,1-3.3,1.9c-0.3,0.2-0.6,0.4-1,0.4c-1.4,0.1-2.7,0.4-4,1c-1.1,0.4-2.2,0.6-3.4,0.6c-5.8,0-11.6,0-17.4,0
	c-0.4,0-0.9,0-1.3,0L0,27.7z M131.9,39.1c0.7-0.5,1-1.3,1.5-1.9c0.6-0.5,1.1-1.1,1.4-1.8c-1.3,0.7-2.5,1.7-3.3,2.9
	C131.9,38.4,131.9,38.8,131.9,39.1c-0.4,0.4-0.8-0.3-1.4-0.1c0.3,0.2,0.6,0.4,0.9,0.5C131.8,39.7,131.9,39.4,131.9,39.1z
	 M122.7,38.9c1.6,0,3.2-0.3,4.8-0.7c-0.8,0-1.7-0.1-2.5-0.2c0,0-0.1,0-0.1,0C124.2,38.4,123.5,38.7,122.7,38.9z M128.7,10.9
	c-0.6-0.9-0.4-1.8-0.5-2.7C128.3,9.1,127.6,10.1,128.7,10.9L128.7,10.9z"/>
<path class="st0" d="M150,19.6c-0.1-0.1-0.2-0.2-0.2-0.4c-0.1-0.9-0.4-1.8-1-2.5c-0.1-0.1-0.2-0.2-0.2-0.3c-0.1-0.9-0.5-1.7-1.1-2.4
	c-1.1-1.8-2-3.7-2.7-5.8c-0.6-1.2-1-2.4-1.1-3.7c0-0.5-0.2-1-0.6-1.4c0,0.3-0.5,0-0.6,0.4c0.4,0.9,0.7,1.9,0.8,2.8
	c0,0.2,0.1,0.4,0.2,0.6c0.8,1.5,1.2,3.2,1.3,4.9c0,0.4,0.1,0.6,0.4,0.7c0.8,0.3,1.5,0.9,1.8,1.7c0.1,0.2,0.1,0.4-0.1,0.5
	c-1.3-1.5-1.3-1.5-2.1-1c0.6,0.3,0.6,1.1,1.2,1.4c0,0.4-0.1,0.9,0.4,1.2c0.5,0,0.5-0.5,0.8-0.8c0.1,0.1,0.3,0.2,0.4,0.3
	c0.6,0.6,0.6,1.4,0.9,2.1c0.5,1.1,0.8,2.3,0.6,3.4c-0.1,1.2-0.2,2.4-0.4,3.5c0,0.6-0.2,1.2-0.4,1.8c-0.3,0.5-1.1,0.5-1.6,0.8
	c-0.7,0.3-1.4,0.7-1.9,1.3c0.2,0.4,0.5,0.2,0.8,0.1c0.9-0.3,1.7-0.9,2.8-0.6c0,0,0.1,0,0.1,0h0.1c0.2,0,0.3-0.2,0.4-0.4
	c0.1-0.2,0.2-0.5,0.2-0.8c0-0.5,0.1-0.9,0.2-1.4c0.2-0.9,0.3-1.9,0.3-2.9c0-0.4-0.1-0.9,0.2-1.2L150,19.6z M146.8,15.7
	c-0.6,0.1-0.2-0.7-0.6-0.7l-0.1-0.7C146.6,14.5,146.9,15.1,146.8,15.7z"/>
<polygon class="st1" points="74.8,3.1 76.3,7.9 81.3,7.9 77.3,10.8 78.8,15.6 74.8,12.6 70.8,15.6 72.3,10.8 68.3,7.9 73.3,7.9 "/>
</svg>
