<svg xmlns="http://www.w3.org/2000/svg" viewBox="0 0 21.5 24"><defs><style>.cls-1{fill:#12284c;fill-rule:evenodd;}</style></defs><title>Asset 6</title><g id="Layer_2" data-name="Layer 2"><g id="navigation"><path class="cls-1" d="M10.75,4.06a9.13,9.13,0,0,0-6.93,15L1.7,22.76a.83.83,0,1,0,1.43.83L5,20.28a9,9,0,0,0,11.33.07l1.87,3.24a.83.83,0,0,0,1.43-.83L17.6,19.17A9.13,9.13,0,0,0,10.75,4.06Zm0,15.79a6.61,6.61,0,1,1,6.61-6.61A6.61,6.61,0,0,1,10.75,19.85Zm0-11.57a.83.83,0,0,0-.83.83v4.13a.88.88,0,0,0,.07.32L8.42,15.13a.82.82,0,0,0,0,1.17.83.83,0,0,0,1.17,0l1.75-1.75a.81.81,0,0,0,.14-1,.74.74,0,0,0,.09-.36V9.11A.82.82,0,0,0,10.75,8.28ZM7.05,2.61l-1-1.55c-.93-1.7-3-.85-3-.85L1.18,1.52c-2,1.74-.82,3.2-.82,3.2L2.09,6.65A9.26,9.26,0,0,1,7.05,2.61ZM20.32,1.52,18.38.21s-2-.85-3,.85l-1,1.55a9.31,9.31,0,0,1,5,4l1.72-1.93S22.36,3.26,20.32,1.52Zm-9.57,1.8A1.65,1.65,0,1,0,9.1,1.67,1.65,1.65,0,0,0,10.75,3.32Z"/></g></g></svg>