<?xml version="1.0" encoding="utf-8"?>
<!-- Generator: Adobe Illustrator 24.0.1, SVG Export Plug-In . SVG Version: 6.00 Build 0)  -->
<svg version="1.1" id="Layer_1" xmlns="http://www.w3.org/2000/svg" xmlns:xlink="http://www.w3.org/1999/xlink" x="0px" y="0px"
	 viewBox="0 0 26.6 20.86" style="enable-background:new 0 0 26.6 20.86;" xml:space="preserve">
<style type="text/css">
  .st-apply-icon-0{fill-rule:evenodd;clip-rule:evenodd;fill:none;stroke:#12284C;stroke-width:1.5;stroke-miterlimit:10;}
  .st-apply-icon-1{fill-rule:evenodd;clip-rule:evenodd;}
  .st-apply-icon-2{fill-rule:evenodd;clip-rule:evenodd;fill:#12284C;}

    .st-apply-icon-3{fill-rule:evenodd;clip-rule:evenodd;fill:none;stroke:#12284C;stroke-width:0.75;stroke-linecap:round;stroke-linejoin:round;stroke-miterlimit:10;}

    .st-apply-icon-4{fill-rule:evenodd;clip-rule:evenodd;fill:none;stroke:#12284C;stroke-width:0.5;stroke-linecap:round;stroke-linejoin:round;stroke-miterlimit:10;}
  .st-apply-icon-5{fill:#12284C;}
  .st-apply-icon-6{fill:#12284C;stroke:#12284C;stroke-width:0.5;stroke-miterlimit:10;}
  .st-apply-icon-7{fill-rule:evenodd;clip-rule:evenodd;}
  .st-apply-icon-8{fill:#FFFFFF;}
  .st-apply-icon-9{fill:none;stroke:#FFFFFF;stroke-width:0.75;stroke-miterlimit:10;}
  .st-apply-icon-10{fill-rule:evenodd;clip-rule:evenodd;fill:none;stroke:#12284C;stroke-width:1.25;stroke-miterlimit:10;}
  .st-apply-icon-11{fill:none;stroke:#12284C;stroke-width:0.75;stroke-miterlimit:10;}
</style>
	<path class="st-apply-icon-0" d="M17.75,20.11H1.31c-0.31,0-0.56-0.25-0.56-0.56V3.53c0-0.31,0.25-0.56,0.56-0.56h16.44
  c0.31,0,0.56,0.25,0.56,0.56v16.03C18.31,19.86,18.06,20.11,17.75,20.11z"/>
	<g id="bHWm7e_1_">
  <g>
    <g>
      <path class="st-apply-icon-5" d="M10.73,17.86c-0.62,0-1.21-0.37-1.66-1.04c-1.95-2.93-3.87-5.39-5.87-7.53C2.54,8.58,2.51,7.8,3.12,7.13
        c0.64-0.71,1.41-1.46,2.4-1.46c0.7,0,1.4,0.36,2.19,1.15c0.92,0.91,1.81,1.96,2.73,3.21c0.07,0.1,0.13,0.17,0.17,0.22
        c0.05-0.05,0.11-0.11,0.2-0.21c2.1-2.36,4.69-5.04,7.99-7.08c2.15-1.33,4.2-2.12,6.25-2.41c0.21-0.03,0.37-0.05,0.52-0.05
        c0.45,0,0.8,0.17,1.06,0.51l0.14,0.18L26.74,1.4c-0.02,0.62-0.51,0.86-0.7,0.96c-3.23,1.67-5.65,4.36-7.79,6.74
        c-1.94,2.16-3.81,4.62-5.88,7.73C11.93,17.49,11.34,17.86,10.73,17.86z"/>
		<path class="st-apply-icon-8" d="M25.55,1.11c0.21,0,0.41,0.06,0.57,0.26c-0.01,0.29-0.23,0.36-0.41,0.45c-3.19,1.65-5.57,4.24-7.92,6.85
        c-2.19,2.44-4.12,5.08-5.94,7.8c-0.33,0.5-0.73,0.75-1.13,0.75c-0.4,0-0.81-0.26-1.15-0.76c-1.79-2.68-3.73-5.25-5.93-7.61
        C3.22,8.41,3.18,7.99,3.58,7.54c0.68-0.75,1.27-1.26,1.94-1.26c0.51,0,1.06,0.29,1.75,0.97c0.98,0.97,1.85,2.03,2.66,3.14
        c0.27,0.37,0.45,0.55,0.65,0.55c0.19,0,0.38-0.16,0.68-0.5c2.34-2.63,4.83-5.1,7.85-6.97c1.86-1.15,3.82-2.02,6.01-2.32
        C25.26,1.14,25.41,1.11,25.55,1.11 M25.55-0.13c-0.21,0-0.39,0.03-0.54,0.05l-0.06,0.01c-2.14,0.3-4.26,1.12-6.49,2.5
        c-3.2,1.98-5.74,4.55-7.81,6.85c-0.84-1.11-1.66-2.06-2.5-2.9C7.57,5.81,6.67,5.05,5.52,5.05c-1.24,0-2.13,0.86-2.86,1.66
        c-0.83,0.91-0.8,2.06,0.08,3c1.97,2.11,3.87,4.55,5.81,7.45c0.57,0.85,1.34,1.32,2.18,1.32c0.48,0,1.4-0.17,2.16-1.3
        c2.06-3.09,3.91-5.53,5.83-7.66c2.1-2.34,4.48-4.99,7.57-6.58c0.7-0.35,1.06-0.85,1.08-1.51l0.02-0.45L27.1,0.62
        C26.84,0.28,26.36-0.13,25.55-0.13L25.55-0.13z"/>
    </g>
  </g>
</g>
</svg>
