<svg xmlns="http://www.w3.org/2000/svg" viewBox="0 0 24 24"><defs><style>.cls-1{fill:#12284c;fill-rule:evenodd;}</style></defs><title>Asset 5</title><g id="Layer_2" data-name="Layer 2"><g id="navigation"><path class="cls-1" d="M15,21.75V19.5H9v2.25a10.79,10.79,0,0,0-2.25,1.5C6,24,7.5,24,7.5,24h9s1.5,0,.75-.75A10.79,10.79,0,0,0,15,21.75ZM22.5,0H1.5A1.5,1.5,0,0,0,0,1.5V17.25a1.5,1.5,0,0,0,1.5,1.5h21a1.5,1.5,0,0,0,1.5-1.5V1.5A1.5,1.5,0,0,0,22.5,0Zm0,13.5A1.5,1.5,0,0,1,21,15H3a1.5,1.5,0,0,1-1.5-1.5V3A1.5,1.5,0,0,1,3,1.5H21A1.5,1.5,0,0,1,22.5,3Z"/></g></g></svg>