<?xml version="1.0" encoding="utf-8"?>
<!-- Generator: Adobe Illustrator 24.0.1, SVG Export Plug-In . SVG Version: 6.00 Build 0)  -->
<svg version="1.1" id="Layer_1" xmlns="http://www.w3.org/2000/svg" xmlns:xlink="http://www.w3.org/1999/xlink" x="0px" y="0px"
     viewBox="0 0 24.03 23.07" style="enable-background:new 0 0 24.03 23.07;" xml:space="preserve">
<style type="text/css">
  .st-contact-icon-0{fill-rule:evenodd;clip-rule:evenodd;fill:none;stroke:#ff7f32;stroke-width:1.5;stroke-miterlimit:10;}
  .st-contact-icon-1{fill-rule:evenodd;clip-rule:evenodd;fill:#FFFFFF;}
  .st-contact-icon-2{fill-rule:evenodd;clip-rule:evenodd;fill:#ff7f32;}

    .st-contact-icon-3{fill-rule:evenodd;clip-rule:evenodd;fill:none;stroke:#ff7f32;stroke-width:0.75;stroke-linecap:round;stroke-linejoin:round;stroke-miterlimit:10;}

    .st-contact-icon-4{fill-rule:evenodd;clip-rule:evenodd;fill:none;stroke:#ff7f32;stroke-width:0.5;stroke-linecap:round;stroke-linejoin:round;stroke-miterlimit:10;}
  .st-contact-icon-5{fill:#ff7f32;}
  .st-contact-icon-6{fill:#ff7f32;stroke:#ff7f32;stroke-width:0.5;stroke-miterlimit:10;}
  .st-contact-icon-7{fill-rule:evenodd;clip-rule:evenodd;fill:#FF7F32;}
  .st-contact-icon-8{fill:#FFFFFF;}
  .st-contact-icon-9{fill:none;stroke:#FFFFFF;stroke-width:0.75;stroke-miterlimit:10;}
  .st-contact-icon-10{fill-rule:evenodd;clip-rule:evenodd;fill:none;stroke:#ff7f32;stroke-width:1.25;stroke-miterlimit:10;}
  .st-contact-icon-11{fill:none;stroke:#ff7f32;stroke-width:0.75;stroke-miterlimit:10;}
  .st-contact-icon-12{fill:#FF7F32;}
</style>
  <g>
  <g>
    <path class="st-contact-icon-5" d="M19.57,17.1c1.62,0,2.86-2.17,2.86-5.38c0-5.78-4.11-10.16-10.29-10.16c-5.97,0-10.53,4.4-10.53,10.18
      c0,5.6,4.38,9.71,10.18,9.71c1.54,0,3.61-0.5,4.99-1.43l0.74,1.43c-1.48,0.98-3.9,1.62-5.73,1.62C5.04,23.07,0,18.25,0,11.75
      C0,5.04,5.25,0,12.15,0c6.87,0,11.88,4.91,11.88,11.67c0,4.16-1.88,6.87-4.64,6.87c-1.51,0-2.68-0.85-2.84-2.44l-0.03-0.95
      c-1.06,1.91-2.97,2.97-5.2,2.97c-3.5,0-6.36-2.65-6.36-6.44c0-3.66,2.52-6.52,6.18-6.52c2.55,0,4.43,1.49,4.96,2.71V5.33h1.96
      v9.97C18.06,16.5,18.72,17.1,19.57,17.1z M7.08,11.59c0,2.6,1.8,4.64,4.43,4.64c2.68,0,4.48-2.02,4.48-4.64
      c0-2.57-1.83-4.53-4.51-4.53C8.88,7.05,7.08,9.02,7.08,11.59z"/>
  </g>
</g>
</svg>
