<?xml version="1.0" encoding="utf-8"?>
<!-- Generator: Adobe Illustrator 24.0.1, SVG Export Plug-In . SVG Version: 6.00 Build 0)  -->
<svg version="1.1" id="Layer_1" xmlns="http://www.w3.org/2000/svg" xmlns:xlink="http://www.w3.org/1999/xlink" x="0px" y="0px"
	 viewBox="0 0 23.8 23.94" style="enable-background:new 0 0 23.8 23.94;" xml:space="preserve">
<style type="text/css">
  .st-reserve-icon-0{fill-rule:evenodd;clip-rule:evenodd;fill:none;stroke:#ff7f32;stroke-width:1.5;stroke-miterlimit:10;}
  .st-reserve-icon-1{fill-rule:evenodd;clip-rule:evenodd;fill:#FFFFFF;}
  .st-reserve-icon-2{fill-rule:evenodd;clip-rule:evenodd;fill:#ff7f32;}

    .st-reserve-icon-3{fill-rule:evenodd;clip-rule:evenodd;fill:none;stroke:#ff7f32;stroke-width:0.75;stroke-linecap:round;stroke-linejoin:round;stroke-miterlimit:10;}

    .st-reserve-icon-4{fill-rule:evenodd;clip-rule:evenodd;fill:none;stroke:#ff7f32;stroke-width:0.5;stroke-linecap:round;stroke-linejoin:round;stroke-miterlimit:10;}
  .st-reserve-icon-5{fill:#ff7f32;}
  .st-reserve-icon-6{fill:#ff7f32;stroke:#ff7f32;stroke-width:0.5;stroke-miterlimit:10;}
  .st-reserve-icon-7{fill-rule:evenodd;clip-rule:evenodd;fill:#FF7F32;}
  .st-reserve-icon-8{fill:#FFFFFF;}
  .st-reserve-icon-9{fill:none;stroke:#FFFFFF;stroke-width:0.75;stroke-miterlimit:10;}
  .st-reserve-icon-10{fill-rule:evenodd;clip-rule:evenodd;fill:none;stroke:#ff7f32;stroke-width:1.25;stroke-miterlimit:10;}
  .st-reserve-icon-11{fill:none;stroke:#ff7f32;stroke-width:0.75;stroke-miterlimit:10;}
  .st-reserve-icon-12{fill:#FF7F32;}
</style>
	<g>
  <g>
    <path class="st-reserve-icon-2" d="M11.9,0C5.33,0,0,5.35,0,11.97c0,6.61,5.33,11.97,11.9,11.97c6.57,0,11.9-5.36,11.9-11.97
      C23.8,5.35,18.48,0,11.9,0z M11.9,22.53c-5.8,0-10.5-4.69-10.5-10.5c0-5.8,4.7-10.5,10.5-10.5c5.8,0,10.5,4.7,10.5,10.5
      C22.4,17.84,17.7,22.53,11.9,22.53z"/>
  </g>
</g>
	<g>
  <g>
    <path class="st-reserve-icon-6" d="M11.84,12.73c-0.41,0-0.75-0.34-0.75-0.75v-5.7c0-0.41,0.34-0.75,0.75-0.75s0.75,0.34,0.75,0.75v5.7
      C12.59,12.39,12.26,12.73,11.84,12.73z"/>
	  <path class="st-reserve-icon-6" d="M16.25,12.73h-4.4c-0.41,0-0.75-0.34-0.75-0.75s0.34-0.75,0.75-0.75h4.4c0.41,0,0.75,0.34,0.75,0.75
      S16.66,12.73,16.25,12.73z"/>
  </g>
</g>
	<g>
  <circle class="st-reserve-icon-5" cx="11.9" cy="3.16" r="0.7"/>
		<circle class="st-reserve-icon-5" cx="11.9" cy="20.78" r="0.7"/>
		<circle class="st-reserve-icon-5" cx="7.5" cy="4.34" r="0.7"/>
		<circle class="st-reserve-icon-5" cx="16.31" cy="19.6" r="0.7"/>
		<circle class="st-reserve-icon-5" cx="4.27" cy="7.56" r="0.7"/>
		<circle class="st-reserve-icon-5" cx="19.53" cy="16.38" r="0.7"/>
		<circle class="st-reserve-icon-5" cx="3.09" cy="11.97" r="0.7"/>
		<circle class="st-reserve-icon-5" cx="20.71" cy="11.97" r="0.7"/>
		<circle class="st-reserve-icon-5" cx="4.27" cy="16.38" r="0.7"/>
		<circle class="st-reserve-icon-5" cx="19.53" cy="7.56" r="0.7"/>
		<circle class="st-reserve-icon-5" cx="7.5" cy="19.6" r="0.7"/>
		<circle class="st-reserve-icon-5" cx="16.31" cy="4.34" r="0.7"/>
</g>
</svg>
