<svg xmlns="http://www.w3.org/2000/svg" viewBox="0 0 67.46 84.37">
    <title>Microscope Icon</title>
    <path class="cls-1" d="M61.28,71.26,59.84,67a13.55,13.55,0,0,0-.52-1.33,22.37,22.37,0,0,0,8.14-17.33A22.6,22.6,0,0,0,50.61,26.48l5.56-8.78a1.27,1.27,0,0,0,.16-1,1.24,1.24,0,0,0-.56-.81l-2.11-1.33L55,12.52l2.11,1.33a1.22,1.22,0,0,0,.68.2,1.27,1.27,0,0,0,1.09-.6l2.72-4.29a1.27,1.27,0,0,0,.16-1,1.29,1.29,0,0,0-.56-.81L49.81.2A1.29,1.29,0,0,0,48,.6L45.32,4.89a1.32,1.32,0,0,0-.17,1,1.29,1.29,0,0,0,.57.81L47.82,8l-1.31,2.07-2.1-1.33a1.29,1.29,0,0,0-1.78.4L24.1,38.43l-1.56-1a1.27,1.27,0,0,0-1-.16,1.24,1.24,0,0,0-.8.56l-2.72,4.3a1.28,1.28,0,0,0,.4,1.77L35.11,54.45a1.32,1.32,0,0,0,.69.2,1.27,1.27,0,0,0,1.08-.6l2.72-4.29A1.29,1.29,0,0,0,39.2,48l-1.56-1,4.57-7.22a9,9,0,0,1,11.63,8.55,9,9,0,0,1-5.57,8.29,15.25,15.25,0,0,0-3.39-.37H18.54A8.77,8.77,0,0,0,9.78,65a1.28,1.28,0,0,0,1.28,1.29H30.17c-.09.23-.17.46-.25.69L28.5,71.19H6.91A6.92,6.92,0,0,0,0,78.1v5a1.29,1.29,0,0,0,1.29,1.29H66a1.29,1.29,0,0,0,1.29-1.29v-5A6.91,6.91,0,0,0,61.28,71.26ZM49.52,3.06,58.7,8.87,57.36,11l-2.1-1.33h0l-5-3.15h0l-2.1-1.33Zm3.28,8.09-1.31,2.07-2.8-1.78L50,9.37ZM35.4,51.59,20.91,42.43l1.34-2.12,1.56,1h0l11.35,7.19h0l1.57,1Zm.06-6-.3-.2-8.88-5.61L44.12,11.6l2.1,1.33h0l5,3.15h0l2.1,1.33-5.84,9.24h0l-4,6.38Zm20.95,2.7A11.54,11.54,0,0,0,44.88,36.79l-.81,0,5-8,0-.07A20.05,20.05,0,0,1,64.89,48.32a19.85,19.85,0,0,1-6.82,15l0-.07a4,4,0,0,0-.23-.34,1,1,0,0,0-.08-.11c-.08-.12-.17-.25-.26-.36l0-.06a15.77,15.77,0,0,0-5.86-4.7A11.57,11.57,0,0,0,56.41,48.32ZM42.69,59A13.21,13.21,0,0,1,57.4,67.81l1.15,3.38H31.21l1.15-3.38a12.5,12.5,0,0,1,1-2.18h0A13.2,13.2,0,0,1,42.56,59ZM12.48,63.71a6.22,6.22,0,0,1,6.06-4.9h17.7a15.78,15.78,0,0,0-4.79,4.9ZM64.68,81.8H2.57V78.1a4.34,4.34,0,0,1,4.34-4.33H60.34a4.34,4.34,0,0,1,4.34,4.33Z"/>
    <path class="cls-1" d="M44.88,60.87A4.13,4.13,0,1,0,49,65,4.13,4.13,0,0,0,44.88,60.87Zm0,5.69A1.56,1.56,0,1,1,46.44,65,1.56,1.56,0,0,1,44.88,66.56Z"/>
</svg>