<svg xmlns="http://www.w3.org/2000/svg" viewBox="0 0 67.58 87.61">
    <title>Light Bulb Icon</title>
    <path class="cls-1" d="M38.82,83.26a5.55,5.55,0,0,0,0,1.14c0,.64,0,1.27,0,1.9a1.27,1.27,0,0,1-1.3,1.3h-.6c-2.18,0-4.36,0-6.54,0a1.4,1.4,0,0,1-1.54-1.54c0-.88,0-1.77,0-2.65a.44.44,0,0,0,0-.1c-.13-.15-.31-.09-.47-.1-.66,0-1.33,0-2,0a1.33,1.33,0,0,1-1.45-1.46c0-2.11,0-4.23,0-6.34,0-1.8,0-3.6,0-5.4a10.88,10.88,0,0,0-.36-2.41A30.64,30.64,0,0,0,22.89,62a26.15,26.15,0,0,0-5.73-8.64,31.88,31.88,0,0,1-3.54-4.07A24.1,24.1,0,0,1,9.5,39.19a24.58,24.58,0,0,1-.08-7.61A24.08,24.08,0,0,1,15.2,19,24.55,24.55,0,0,1,27,11.52a23.8,23.8,0,0,1,8.44-.9,24.18,24.18,0,0,1,17.14,8.72A23.41,23.41,0,0,1,58,31.13,24.25,24.25,0,0,1,53,50.58a36.75,36.75,0,0,1-2.54,2.75A25.78,25.78,0,0,0,43.63,65c-.33,1.22-.59,2.45-.8,3.7a3.78,3.78,0,0,0,0,.75c0,4,0,8,0,12,0,1.22-.56,1.79-1.7,1.72-.65,0-1.3,0-2,0C39.05,83.22,39,83.25,38.82,83.26Zm1.64-15.94c0-.21.1-.39.13-.56.26-1.22.5-2.45.87-3.64A28.57,28.57,0,0,1,48.7,51.27a25.23,25.23,0,0,0,2.63-2.94,21.47,21.47,0,0,0,3.85-18A21.35,21.35,0,0,0,42.82,15.13a21.85,21.85,0,0,0-15.62-1A21.78,21.78,0,0,0,14.51,24.42a21.32,21.32,0,0,0-2.44,14.47,21,21,0,0,0,6.2,11.81,30.17,30.17,0,0,1,6.49,9.09,30.94,30.94,0,0,1,1.81,5.38,18.72,18.72,0,0,0,.62,2.15Zm-13,13.23c.63.11,12.36.07,12.64,0v-6a1.14,1.14,0,0,0-.57-.06q-3.57,0-7.14,0a2.32,2.32,0,0,1-.79-.11,1.29,1.29,0,0,1,.17-2.49,2.76,2.76,0,0,1,.64-.05h7.1a1.06,1.06,0,0,0,.6-.08,14.39,14.39,0,0,0,0-1.74H27.51v6.39a1.09,1.09,0,0,0,.58.07h3c.77,0,1.54,0,2.3,0a1.28,1.28,0,0,1,1.21,1.13A1.31,1.31,0,0,1,33.77,79a2.31,2.31,0,0,1-.74.09H28c-.17,0-.36,0-.54.1A8.72,8.72,0,0,0,27.5,80.55Zm8.65,2.72c-1.59,0-3.14,0-4.7,0a14.61,14.61,0,0,0,0,1.63,30.4,30.4,0,0,0,4.69,0A14.57,14.57,0,0,0,36.15,83.27Z"/>
    <path class="cls-1" d="M8.49,23.22A2,2,0,0,1,7.82,23L.9,20a1.33,1.33,0,0,1-.9-1.3,1.27,1.27,0,0,1,1.48-1.24,2.67,2.67,0,0,1,.48.15l7,3.11a1.29,1.29,0,0,1,.87,1.49A1.23,1.23,0,0,1,8.49,23.22Z"/>
    <path class="cls-1" d="M67.58,18.69a1.33,1.33,0,0,1-.9,1.26l-3.32,1.48-3.69,1.65a1.34,1.34,0,0,1-1.81-.65,1.27,1.27,0,0,1,.69-1.7c2.23-1,4.46-2,6.7-3a5.1,5.1,0,0,1,.73-.3A1.27,1.27,0,0,1,67.58,18.69Z"/>
    <path class="cls-1" d="M24.4,7.38a1.28,1.28,0,0,1-.81,1.28,1.26,1.26,0,0,1-1.37-.31,3.61,3.61,0,0,1-.33-.44L18.17,2.23a2.67,2.67,0,0,1-.25-.43A1.27,1.27,0,0,1,18.49.17a1.27,1.27,0,0,1,1.61.3,1.38,1.38,0,0,1,.17.25c1.27,1.93,2.53,3.87,3.8,5.81A1.49,1.49,0,0,1,24.4,7.38Z"/>
    <path class="cls-1" d="M44.67,8.74a1.33,1.33,0,0,1-1.32-1.83,2.38,2.38,0,0,1,.18-.3L47.34.77a1.43,1.43,0,0,1,1-.73,1.18,1.18,0,0,1,1.2.43,1.2,1.2,0,0,1,.24,1.3,1.34,1.34,0,0,1-.17.31l-3.9,6A1.32,1.32,0,0,1,44.67,8.74Z"/>
    <path class="cls-1" d="M36.92,40.3l-3.37,2.49c-.55.4-1.09.81-1.65,1.21a1.31,1.31,0,0,1-1.78,0c-1.87-1.41-3.73-2.85-5.62-4.24a1.35,1.35,0,0,1,.3-2.32,1.23,1.23,0,0,1,1.06.07,3.39,3.39,0,0,1,.5.34l4.26,3.22.41.3a.88.88,0,0,0,.47-.25L36,37.78a1.35,1.35,0,0,1,2,0l5,4.1a1.54,1.54,0,0,1,.6.84A1.11,1.11,0,0,1,43.34,44a1.4,1.4,0,0,1-1.4.29,2.2,2.2,0,0,1-.58-.37L37.43,40.7Z"/>
</svg>