<svg xmlns="http://www.w3.org/2000/svg" viewBox="0 0 72 83.04">
    <title>Lab Coat</title>
    <path class="cls-1" d="M30.61,67.23A1.42,1.42,0,1,0,32,68.64,1.41,1.41,0,0,0,30.61,67.23Z"/>
    <path class="cls-1" d="M30.61,53.51A1.42,1.42,0,1,0,32,54.92,1.41,1.41,0,0,0,30.61,53.51Z"/>
    <path class="cls-1" d="M30.61,39.79A1.42,1.42,0,1,0,32,41.2,1.41,1.41,0,0,0,30.61,39.79Z"/>
    <path class="cls-1" d="M71.64,23.94,56.16,7.4a8.77,8.77,0,0,0-4.33-2.34l-2.18-.41L44.19.29h0L44,.17h0L43.81.08,43.61,0h0l-.19,0H28.63l-.2,0h0L28.2.07,28,.16h0l-.16.11h0L22.35,4.65l-2.17.41A8.76,8.76,0,0,0,15.84,7.4L.36,23.94a1.34,1.34,0,0,0-.36.91V47.94a1.32,1.32,0,0,0,1.33,1.33H11a1.32,1.32,0,0,0,1.32-1.33V31.1l4.54-4.77L15,79.25a1.34,1.34,0,0,0,.92,1.31c.32.1,8,2.48,20.06,2.48s19.74-2.38,20.06-2.48A1.34,1.34,0,0,0,57,79.25L55.16,26.33,59.7,31.1V47.94A1.32,1.32,0,0,0,61,49.27h9.65A1.32,1.32,0,0,0,72,47.94V24.85A1.34,1.34,0,0,0,71.64,23.94ZM43,12.79l2.31,4.79-8,11.71V22.86L44,3.53l3.55,2.83L46,10.89H44.22a1.36,1.36,0,0,0-1.13.62A1.33,1.33,0,0,0,43,12.79ZM28.91,11.51a1.36,1.36,0,0,0-1.13-.62H26L24.45,6.36,28,3.53l6.68,19.33v6.43l-8-11.71L29,12.79A1.33,1.33,0,0,0,28.91,11.51ZM36,18.58,30.49,2.65h11ZM18.68,49.9h4.5v7.84A2.21,2.21,0,0,1,21,60H18.33ZM53.67,60H51a2.21,2.21,0,0,1-2.21-2.21V49.9h4.5ZM69.35,46.62h-7V24.85a1.33,1.33,0,1,0-2.65,0v2.41l-5-5.29a1.33,1.33,0,0,0-1.47-.31,1.34,1.34,0,0,0-.82,1.27l.84,24.32H47.49a1.32,1.32,0,0,0-1.32,1.32v9.17A4.87,4.87,0,0,0,51,62.6h2.73l.54,15.7A75.29,75.29,0,0,1,36,80.39,75.82,75.82,0,0,1,17.7,78.3l.54-15.7H21a4.87,4.87,0,0,0,4.86-4.86V48.57a1.32,1.32,0,0,0-1.32-1.32H18.77l.84-24.32a1.34,1.34,0,0,0-.82-1.27,1.33,1.33,0,0,0-1.47.31l-5,5.28v-2.4a1.33,1.33,0,1,0-2.65,0V46.62h-7V25.37L17.77,9.21a6.31,6.31,0,0,1,2.88-1.54L22,7.41l1.81,5.24a1.33,1.33,0,0,0,1.25.89h.6L24,17.12a1.3,1.3,0,0,0,.1,1.32L34.67,34V76.41a1.33,1.33,0,1,0,2.65,0V34L48,18.44a1.3,1.3,0,0,0,.1-1.32l-1.72-3.58h.6a1.33,1.33,0,0,0,1.25-.89L50,7.41l1.37.26a6.33,6.33,0,0,1,2.87,1.54L69.35,25.37V46.62Z"/>
</svg>