<svg xmlns="http://www.w3.org/2000/svg" viewBox="0 0 86.57 52.05">
    <title>Safety Glasses</title>
    <path class="cls-1" d="M80.93,25.24H79.75c-7.62,0-15.25,0-22.88,0a1.48,1.48,0,0,0-1.49.78c-.49.83-1.05,1.62-1.62,2.4a4.25,4.25,0,0,1-3.51,1.91q-7,.06-13.91,0a4.34,4.34,0,0,1-3.53-1.89,3.34,3.34,0,0,1-.49-.71c-.87-2.2-2.5-2.58-4.72-2.53-7,.15-14,0-21,0h-1V29c0,.39,0,.77,0,1.16a1.2,1.2,0,0,1-1.25,1.31A1.17,1.17,0,0,1,3.1,30.2c0-1.29,0-2.58,0-3.86v-1a5.44,5.44,0,0,0-1.68-.12A1.3,1.3,0,0,1,0,23.85C0,22.24,0,20.63,0,19a1.75,1.75,0,0,1,1-1.53l21.21-14c1.37-.9,2.72-1.83,4.12-2.7A4.6,4.6,0,0,1,32.8,2.09q1.74,2.37,3.42,4.8a3.86,3.86,0,0,1-6.07,4.76c-.63-.68-1.24-1.39-1.93-2.17l-10.5,7.85,0,.21H20.4c.35,0,.71,0,1.06,0a1.27,1.27,0,0,1,1.35,1.32,1.2,1.2,0,0,1-1.35,1.21c-1.38,0-2.76,0-4.15,0H3.5c-.28,0-.56,0-.9,0a10.62,10.62,0,0,0,0,2.39,2,2,0,0,0,1.17.14c8.91,0,17.83,0,26.75,0a2.37,2.37,0,0,1,2.36,1.28c.54.94,1.2,1.82,1.8,2.74a2.32,2.32,0,0,0,2.1,1.13h13a2.34,2.34,0,0,0,2.1-1.14c.64-1,1.32-1.91,1.91-2.9a2.13,2.13,0,0,1,2.07-1.1c8.95,0,17.9,0,26.85,0h1.19A10.55,10.55,0,0,0,84,20.26c-.4-.3-.83-.17-1.23-.17H28.5a8.94,8.94,0,0,1-1.16,0,1.15,1.15,0,0,1-1.08-1.16,1.17,1.17,0,0,1,.95-1.28,4.42,4.42,0,0,1,1.15-.07h39.3a2.49,2.49,0,0,0,1.18-.21L58.35,9.49c-.74.82-1.42,1.66-2.19,2.42a3.59,3.59,0,0,1-4,.93,3.74,3.74,0,0,1-2.6-3.3,3.72,3.72,0,0,1,.74-2.63c1.13-1.57,2.24-3.15,3.37-4.72A4.59,4.59,0,0,1,60.28.87c4.54,2.93,9,5.93,13.56,8.9,3.82,2.51,7.61,5.05,11.46,7.52a2.37,2.37,0,0,1,1.26,2.38c-.08,1.18,0,2.38,0,3.57,0,1.66-.32,2-2,2H83.47v4.65c0,1-.45,1.61-1.24,1.61s-1.28-.56-1.29-1.57c0-1.19,0-2.39,0-3.58Zm-75-7.92.06.23c2,0,4,0,6,0a3.19,3.19,0,0,0,2.12-.7c4.39-3.32,8.8-6.6,13.21-9.9,1-.73,1.48-.67,2.31.26S31.16,9,31.93,9.85a1.41,1.41,0,0,0,2,.37,1.38,1.38,0,0,0,.11-2C33,6.71,31.92,5.18,30.81,3.68a2.16,2.16,0,0,0-3.34-.57L9.18,15.17Zm74.86.22a3.41,3.41,0,0,0-.3-.33Q69.7,10.09,58.89,3a2.07,2.07,0,0,0-3,.58c-1.16,1.54-2.27,3.12-3.38,4.7a1.37,1.37,0,0,0,.15,2,1.39,1.39,0,0,0,2-.34c.75-.84,1.47-1.7,2.22-2.55,1-1.12,1.39-1.15,2.59-.26L72.6,17c.31.23.58.57,1,.57Z"/>
    <path class="cls-1" d="M83.46,39.13a9.69,9.69,0,0,1-1,5.4,7.74,7.74,0,0,1-5,3.83c-5.13,1.21-10.27,2.4-15.42,3.51a8,8,0,0,1-8.44-3.6c-1.62-2.48-3.19-5-4.81-7.46-2.89-4.4-8.14-4.39-11,0q-2.34,3.6-4.65,7.22A8.12,8.12,0,0,1,24,51.75L9.54,48.47a8,8,0,0,1-6.45-7.95c0-1.35,0-2.7,0-4.05,0-1,.48-1.52,1.23-1.54s1.29.58,1.3,1.58c0,1.29,0,2.58,0,3.86a5.38,5.38,0,0,0,4.3,5.56q7.5,1.8,15.05,3.43a5.34,5.34,0,0,0,5.9-2.54c1.65-2.49,3.26-5,4.86-7.54a8.79,8.79,0,0,1,15.05-.06l4.7,7.3a5.62,5.62,0,0,0,6.69,2.72C66.78,48.19,71.4,47.16,76,46.1c3.44-.78,4.93-2.68,4.93-6.23,0-1.15,0-2.31,0-3.47,0-.92.54-1.51,1.31-1.45s1.21.63,1.21,1.45S83.46,38,83.46,39.13Z"/>
    <path class="cls-1" d="M22.77,31.46a1.51,1.51,0,0,1-.51,1.15C20.14,34.73,18,36.85,15.91,39c-.7.68-1.41.7-1.95.14s-.52-1.24.19-2c2.07-2.11,4.17-4.2,6.27-6.29A1.34,1.34,0,0,1,22,30.4,1.26,1.26,0,0,1,22.77,31.46Z"/>
    <path class="cls-1" d="M61.11,39.48A1.25,1.25,0,0,1,60,37.69a2.84,2.84,0,0,1,.53-.68l6.07-6.07a1.69,1.69,0,0,1,1.05-.63,1.15,1.15,0,0,1,1.21.62,1.2,1.2,0,0,1-.19,1.51c-2.22,2.24-4.45,4.46-6.68,6.69A1.41,1.41,0,0,1,61.11,39.48Z"/>
    <path class="cls-1" d="M24.56,35.53a1.32,1.32,0,0,1-.46,1c-1.41,1.42-2.81,2.83-4.23,4.23A1.21,1.21,0,0,1,18,40.9,1.2,1.2,0,0,1,18.06,39c1.41-1.45,2.86-2.88,4.29-4.3a1.23,1.23,0,0,1,1.42-.31A1.2,1.2,0,0,1,24.56,35.53Z"/>
    <path class="cls-1" d="M65.41,41.29c-.78,0-1.15-.27-1.37-.7a1.13,1.13,0,0,1,.13-1.36c1.52-1.56,3-3.12,4.63-4.63a1.13,1.13,0,0,1,1.72.17,1.12,1.12,0,0,1,0,1.65c-1.49,1.51-3,3-4.5,4.5A1.43,1.43,0,0,1,65.41,41.29Z"/>
</svg>