<svg xmlns="http://www.w3.org/2000/svg" viewBox="0 0 84.73 68">
    <title>Shaking Hands</title>
    <circle class="cls-1" cx="66.41" cy="11.73" r="1.65"/>
    <circle class="cls-1" cx="20.42" cy="15.15" r="1.65"/>
    <path class="cls-1" d="M11.86,25.85l4.95-5a1.65,1.65,0,1,0-2.34-2.34l-5,5a1.66,1.66,0,0,0,2.35,2.34Z"/>
    <path class="cls-1" d="M73,21.05a1.65,1.65,0,1,0,2.34-2.34l-3.3-3.3a1.65,1.65,0,1,0-2.34,2.34Z"/>
    <path class="cls-1" d="M84.25,19.21,65.52.48a1.65,1.65,0,0,0-2.3,0l-8.39,7.9v0a7,7,0,0,1-5.17,2.34,13.12,13.12,0,0,0-9.6,3.54,12.31,12.31,0,0,0-7.75-3.34L24,2.64a1.65,1.65,0,0,0-2.34,0L.48,23.84a1.65,1.65,0,0,0,0,2.3l0,0L14.3,40l-.58.58a5.79,5.79,0,0,0,4.15,9.88,5.81,5.81,0,0,0,5.86,5.86,5.73,5.73,0,0,0,1.69,4.16,5.79,5.79,0,0,0,4.16,1.69,5.73,5.73,0,0,0,1.69,4.16,5.81,5.81,0,0,0,8.19,0l.59-.59.58.59a5.81,5.81,0,0,0,8.19,0,5.74,5.74,0,0,0,1.7-4.16,5.73,5.73,0,0,0,4.16-1.7,5.8,5.8,0,0,0,1.69-4.15,5.79,5.79,0,0,0,5.85-5.86,5.79,5.79,0,0,0,4.16-9.88L65.79,40c11.54-11.53-3.05,3.08,18.46-18.43A1.67,1.67,0,0,0,84.25,19.21ZM4,25,22.86,6.15l6.36,6.35L10.36,31.37Zm12.06,21.4a2.48,2.48,0,0,1,0-3.51l5.85-5.85a2.48,2.48,0,0,1,3.51,3.51l-5.85,5.85A2.48,2.48,0,0,1,16.06,46.41Zm5.85,5.85a2.48,2.48,0,0,1,0-3.51l5.85-5.85a2.48,2.48,0,0,1,3.51,3.51h0l-5.85,5.85A2.48,2.48,0,0,1,21.91,52.26Zm5.85,5.85a2.48,2.48,0,0,1,0-3.51l5.85-5.85a2.5,2.5,0,0,1,3.51,0,2.47,2.47,0,0,1,0,3.51h0l-5.85,5.85A2.48,2.48,0,0,1,27.76,58.11ZM33.61,64a2.49,2.49,0,0,1,0-3.52l5.85-5.85A2.48,2.48,0,0,1,43,58.11L37.12,64A2.5,2.5,0,0,1,33.61,64Zm12.87,0A2.5,2.5,0,0,1,43,64l-.58-.59,2.92-2.93a5.41,5.41,0,0,0,.55-.62l.62.62h0A2.48,2.48,0,0,1,46.48,64ZM64,46.41a2.48,2.48,0,0,1-3.51,0l-7.61-7.6a1.65,1.65,0,0,0-2.34,2.34l7.61,7.6a2.48,2.48,0,0,1-3.51,3.51l-7.61-7.6A1.65,1.65,0,0,0,44.73,47l7.6,7.6a2.48,2.48,0,0,1,0,3.51,2.44,2.44,0,0,1-1.75.73C49,58.84,48.5,57.6,47,56.3a5.81,5.81,0,0,0-5.85-5.73,5.79,5.79,0,0,0-5.85-5.85,5.78,5.78,0,0,0-5.85-5.85,5.8,5.8,0,0,0-9.89-4.16l-2.93,2.93L12.7,33.71,32.18,14.23a8.92,8.92,0,0,1,5.52,2.35L33,21.25a6.62,6.62,0,1,0,9.36,9.37l4.68-4.69c3,3,14.76,14.77,17,17A2.5,2.5,0,0,1,64,46.41Zm-.59-8.77-14-14,1.17-1.17a1.65,1.65,0,0,0,0-2.34,1.67,1.67,0,0,0-2.34,0l-8.19,8.2a3.31,3.31,0,1,1-4.68-4.69l6.74-6.73A9.81,9.81,0,0,1,49.65,14a9.69,9.69,0,0,0,6.25-2.19l16.48,16.9ZM74.72,26.39,58.35,9.59l6-5.63L80.73,20.38Z"/>
</svg>