<svg xmlns="http://www.w3.org/2000/svg" viewBox="0 0 90 58.03">
    <title>Network Icon</title>
    <path class="cls-1" d="M47.5,44.23A7.05,7.05,0,0,0,45,43.76a7.14,7.14,0,0,0-7,5.93H26.79a7.14,7.14,0,0,0-7-5.93,7.22,7.22,0,0,0-2.47.46l-5.61-9.71a7.05,7.05,0,0,0,0-10.93l5.64-9.77a7,7,0,0,0,2.47.46,7.14,7.14,0,0,0,7-5.93H38a7.14,7.14,0,0,0,7,5.93,7.28,7.28,0,0,0,2.48-.46l5.64,9.77a7.05,7.05,0,0,0,0,10.93ZM45,55.63a4.81,4.81,0,0,1-4.74-4.74,4.83,4.83,0,0,1,.17-1.2A4.73,4.73,0,0,1,45,46.16a4.3,4.3,0,0,1,1.25.19,4.69,4.69,0,0,1,3.49,4.54A4.74,4.74,0,0,1,45,55.63m-25.25,0a4.73,4.73,0,0,1-3.33-8.1,4.72,4.72,0,0,1,7.89,2.16,4.41,4.41,0,0,1,.18,1.2,4.3,4.3,0,0,1-.18,1.2,4.73,4.73,0,0,1-4.56,3.54M7.14,33.8a4.74,4.74,0,0,1,0-9.48,4.93,4.93,0,0,1,1.22.18,4.67,4.67,0,0,1,2.09,1.18,4.7,4.7,0,0,1-2,7.92,4.37,4.37,0,0,1-1.26.2M19.77,2.4a4.73,4.73,0,0,1,4.56,3.54,4.3,4.3,0,0,1,.18,1.2,4.41,4.41,0,0,1-.18,1.2,4.73,4.73,0,0,1-4.56,3.54,4.65,4.65,0,0,1-1.24-.19A4.71,4.71,0,0,1,15,7.14,4.74,4.74,0,0,1,19.77,2.4m30,4.74a4.69,4.69,0,0,1-3.49,4.55,4.66,4.66,0,0,1-1.25.19,4.74,4.74,0,0,1-4.57-3.54,4.83,4.83,0,0,1-.17-1.2,4.74,4.74,0,1,1,9.48,0M56.4,33.6a4.66,4.66,0,0,1-2.08-1.19,4.71,4.71,0,0,1,2.12-7.91,4.93,4.93,0,0,1,1.22-.18,4.74,4.74,0,1,1,0,9.48,4.37,4.37,0,0,1-1.26-.2m1.26-11.68a7.05,7.05,0,0,0-2.44.46l-5.65-9.79A7.12,7.12,0,1,0,38,5.94H26.79A7.13,7.13,0,1,0,15.23,12.6L9.58,22.38a7.05,7.05,0,0,0-2.44-.46,7.14,7.14,0,0,0,0,14.28,6.84,6.84,0,0,0,2.48-.48l5.61,9.71a7.12,7.12,0,1,0,11.56,6.66H38a7.13,7.13,0,1,0,11.57-6.65l5.6-9.72a6.89,6.89,0,0,0,2.49.48,7.14,7.14,0,0,0,0-14.28"/>
    <path class="cls-1" d="M72.7,44.23a7.06,7.06,0,0,0-9.5,5.46H52a7.12,7.12,0,0,0-7-5.93,7.22,7.22,0,0,0-2.47.46l-5.61-9.71a7.05,7.05,0,0,0,0-10.93l5.64-9.77a7,7,0,0,0,2.47.46,7.12,7.12,0,0,0,7-5.93H63.2a7.13,7.13,0,0,0,7,5.93,7.32,7.32,0,0,0,2.48-.46l5.64,9.77a7.05,7.05,0,0,0,0,10.93Zm-2.48,11.4a4.81,4.81,0,0,1-4.74-4.74,4.83,4.83,0,0,1,.17-1.2,4.73,4.73,0,0,1,4.57-3.53,4.3,4.3,0,0,1,1.25.19,4.6,4.6,0,0,1,2.08,1.19A4.67,4.67,0,0,1,75,50.89a4.74,4.74,0,0,1-4.74,4.74M45,55.63a4.73,4.73,0,0,1-1.25-9.29A4.66,4.66,0,0,1,45,46.16a4.72,4.72,0,0,1,4.56,3.53,4.41,4.41,0,0,1,.18,1.2,4.3,4.3,0,0,1-.18,1.2A4.73,4.73,0,0,1,45,55.63M32.33,33.8a4.74,4.74,0,0,1,0-9.48,4.94,4.94,0,0,1,1.23.18,4.7,4.7,0,0,1,3.51,4.56A4.67,4.67,0,0,1,33.6,33.6a4.49,4.49,0,0,1-1.27.2M45,2.4a4.73,4.73,0,0,1,4.56,3.54,4.3,4.3,0,0,1,.18,1.2,4.41,4.41,0,0,1-.18,1.2A4.73,4.73,0,0,1,45,11.88a4.66,4.66,0,0,1-1.25-.19A4.73,4.73,0,0,1,45,2.4M75,7.14a4.71,4.71,0,0,1-3.49,4.55,4.66,4.66,0,0,1-1.25.19,4.74,4.74,0,0,1-4.57-3.54,4.83,4.83,0,0,1-.17-1.2,4.74,4.74,0,1,1,9.48,0M81.6,33.6a4.66,4.66,0,0,1-2.08-1.19,4.71,4.71,0,0,1,0-6.73,4.67,4.67,0,0,1,2.09-1.18,4.93,4.93,0,0,1,1.22-.18,4.74,4.74,0,0,1,0,9.48,4.37,4.37,0,0,1-1.26-.2m1.26-11.68a7.15,7.15,0,0,0-2.45.46l-5.64-9.79A7.12,7.12,0,1,0,63.2,5.94H52A7.12,7.12,0,1,0,40.43,12.6l-5.65,9.78A7.13,7.13,0,1,0,32.33,36.2a6.85,6.85,0,0,0,2.49-.48l5.61,9.71A7.12,7.12,0,1,0,52,52.09H63.2a7.12,7.12,0,1,0,11.57-6.65l5.6-9.72a6.89,6.89,0,0,0,2.49.48,7.14,7.14,0,0,0,0-14.28"/>
</svg>