<svg xmlns="http://www.w3.org/2000/svg" viewBox="0 0 69.98 70">
    <title>Person Thinking</title>
    <path class="cls-1" d="M26.83,23.34A4.67,4.67,0,1,0,31.5,28,4.65,4.65,0,0,0,26.83,23.34Zm0,7A2.34,2.34,0,1,1,29.17,28,2.33,2.33,0,0,1,26.83,30.34Z"/>
    <path class="cls-1" d="M41,.08A26.22,26.22,0,0,0,15.53,14.66C13.87,18,6.23,39.54,5.9,40.45a1.17,1.17,0,0,0,.72,1.49A1.21,1.21,0,0,0,7,42h7V39.67H8.65c1.83-5.12,7.62-21.25,9-24A23.89,23.89,0,0,1,40.87,2.4a23.33,23.33,0,0,1,3.22.46L44.58.59A26.48,26.48,0,0,0,41,.08Z"/>
    <path class="cls-1" d="M62.2,32.37a23.38,23.38,0,0,1-.76,2.37A77.41,77.41,0,0,0,56,62.29V63H29.17V58.33h4.64a5.85,5.85,0,0,0,5.61-4.23l3.7-13-2.24-.64-3.7,13A3.53,3.53,0,0,1,33.81,56H22.17v2.33h4.66v5.84A1.16,1.16,0,0,0,28,65.33H57.16a1.16,1.16,0,0,0,1.17-1.16V62.29a75,75,0,0,1,5.29-26.71q.48-1.29.84-2.61Z"/>
    <path class="cls-1" d="M20.42,44.33H5.83A5.84,5.84,0,0,0,0,50.17V68.83A1.17,1.17,0,0,0,1.17,70H15.75a4.08,4.08,0,0,0,2.85-7,4.07,4.07,0,0,0,.07-5.76.23.23,0,0,0-.07-.07,4.09,4.09,0,0,0,.84-4.67h1a4.09,4.09,0,0,0,0-8.17Zm0,5.84H9.33a1.17,1.17,0,0,0,0,2.33h6.42a1.75,1.75,0,0,1,0,3.5H9.33a1.17,1.17,0,0,0,0,2.33h6.42a1.75,1.75,0,0,1,0,3.5H9.33a1.17,1.17,0,0,0,0,2.34h6.42a1.75,1.75,0,0,1,0,3.5H2.33V50.17a3.5,3.5,0,0,1,3.5-3.5H20.42a1.75,1.75,0,0,1,0,3.5Z"/>
    <path class="cls-1" d="M69,8.75a7.67,7.67,0,0,0-8.12-3.59,7.6,7.6,0,0,0-14.39,0,7.67,7.67,0,0,0-8.12,3.59,7.5,7.5,0,0,0,.9,8.75,7.5,7.5,0,0,0-.9,8.75,7.67,7.67,0,0,0,8.12,3.59,7.6,7.6,0,0,0,14.39,0A7.67,7.67,0,0,0,69,26.25a7.5,7.5,0,0,0-.9-8.75A7.5,7.5,0,0,0,69,8.75ZM67,25.09a5.31,5.31,0,0,1-6.51,2.21,1.17,1.17,0,0,0-1.52.66,2,2,0,0,0-.07.26,5.26,5.26,0,0,1-10.39,0,1.18,1.18,0,0,0-1.16-1,1.31,1.31,0,0,0-.43.08,5.31,5.31,0,0,1-6.51-2.21,5.15,5.15,0,0,1,1.3-6.65,1.17,1.17,0,0,0,.21-1.64,1,1,0,0,0-.21-.21,5.16,5.16,0,0,1-1.3-6.67A5.3,5.3,0,0,1,46.88,7.7a1.17,1.17,0,0,0,1.52-.65,2.13,2.13,0,0,0,.07-.27,5.26,5.26,0,0,1,10.39,0,1.16,1.16,0,0,0,1.32,1,.9.9,0,0,0,.27-.07A5.3,5.3,0,0,1,67,9.92a5.14,5.14,0,0,1-1.3,6.65,1.17,1.17,0,0,0-.21,1.64,1,1,0,0,0,.21.21A5.16,5.16,0,0,1,67,25.09Z"/>
    <rect class="cls-1" x="52.5" y="16.34" width="2.33" height="2.33"/>
    <rect class="cls-1" x="47.83" y="16.34" width="2.33" height="2.33"/>
    <rect class="cls-1" x="57.16" y="16.34" width="2.33" height="2.33"/>
</svg>