<svg id="Layer_1" data-name="Layer 1" xmlns="http://www.w3.org/2000/svg" viewBox="0 0 53.95 47.89"><defs><style>.cls-1{fill:#ff7f32;}.cls-2{fill:#fff;}</style></defs><title>social</title><path class="cls-1" d="M38.3,0H15.65A4.36,4.36,0,0,0,11.9,2.16L.58,21.78a4.35,4.35,0,0,0,0,4.33L11.9,45.72a4.35,4.35,0,0,0,3.75,2.17H38.3a4.33,4.33,0,0,0,3.75-2.17L53.37,26.11a4.3,4.3,0,0,0,0-4.33L42.05,2.16A4.34,4.34,0,0,0,38.3,0Z"/><path class="cls-2" d="M42,18.32V32.38l-8.44-7.5ZM12,16.44V13.63H42v2.81L27,28.63Zm0,15.94V18.32l8.43,6.56Zm15-1.87,5.62-4.69L42,34.26H12l9.37-8.44Z"/></svg>