<svg id="Layer_1" data-name="Layer 1" xmlns="http://www.w3.org/2000/svg" viewBox="0 0 53.95 47.89"><defs><style>.cls-1{fill:#ff7f32;}.cls-2{fill:#fff;}</style></defs><title>social</title><path class="cls-1" d="M38.3,0H15.65A4.36,4.36,0,0,0,11.9,2.16L.58,21.78a4.35,4.35,0,0,0,0,4.33L11.9,45.72a4.35,4.35,0,0,0,3.75,2.17H38.3a4.33,4.33,0,0,0,3.75-2.17L53.37,26.11a4.3,4.3,0,0,0,0-4.33L42.05,2.16A4.34,4.34,0,0,0,38.3,0Z"/><path class="cls-2" d="M23,38.94h6v-15h4.45l.55-6H29.21v-2.4a1.27,1.27,0,0,1,1.32-1.44H33.9V9l-4.63,0c-5.15,0-6.32,3.84-6.32,6.29v2.71H20v6h3Z"/><path class="cls-2" d="M23,38.94h6v-15h4.45l.55-6H29.21v-2.4a1.27,1.27,0,0,1,1.32-1.44H33.9V9l-4.63,0c-5.15,0-6.32,3.84-6.32,6.29v2.71H20v6h3Z"/><path class="cls-2" d="M23,38.94h6v-15h4.45l.55-6H29.21v-2.4a1.27,1.27,0,0,1,1.32-1.44H33.9V9l-4.63,0c-5.15,0-6.32,3.84-6.32,6.29v2.71H20v6h3Z"/></svg>