<svg id="Layer_1" data-name="Layer 1" xmlns="http://www.w3.org/2000/svg" viewBox="0 0 53.95 47.89"><defs><style>.cls-1{fill:#ff7f32;}.cls-2{fill:#fff;}</style></defs><title>social</title><path class="cls-1" d="M38.3,0H15.65A4.36,4.36,0,0,0,11.9,2.16L.58,21.78a4.35,4.35,0,0,0,0,4.33L11.9,45.72a4.35,4.35,0,0,0,3.75,2.17H38.3a4.33,4.33,0,0,0,3.75-2.17L53.37,26.11a4.3,4.3,0,0,0,0-4.33L42.05,2.16A4.34,4.34,0,0,0,38.3,0Z"/><rect class="cls-2" x="11.98" y="18.94" width="7" height="20"/><path class="cls-2" d="M15.48,15.94a3.5,3.5,0,1,0-3.5-3.5A3.5,3.5,0,0,0,15.48,15.94Z"/><path class="cls-2" d="M42,28c0-5.4-1.17-9-7.46-9-3,0-5.05,1.13-5.88,2.7h-.09v-2.7H23v20h5.83V29c0-2.61.49-5.15,3.72-5.15S36,26.87,36,29.2v9.74h6Z"/></svg>