<svg id="Layer_1" data-name="Layer 1" xmlns="http://www.w3.org/2000/svg" viewBox="0 0 53.95 47.89"><defs><style>.cls-1{fill:#ff7f32;}.cls-2{fill:#fff;}</style></defs><title>social</title><path class="cls-1" d="M38.3,0H15.65A4.36,4.36,0,0,0,11.9,2.16L.58,21.78a4.35,4.35,0,0,0,0,4.33L11.9,45.72a4.35,4.35,0,0,0,3.75,2.17H38.3a4.33,4.33,0,0,0,3.75-2.17L53.37,26.11a4.3,4.3,0,0,0,0-4.33L42.05,2.16A4.34,4.34,0,0,0,38.3,0Z"/><path class="cls-2" d="M41.15,12.39a12.79,12.79,0,0,1-3.91,1.47,6.18,6.18,0,0,0-4.49-1.92A6.12,6.12,0,0,0,26.59,18a6.21,6.21,0,0,0,.16,1.38,17.53,17.53,0,0,1-12.68-6.33A6,6,0,0,0,16,21.14a6.12,6.12,0,0,1-2.79-.76v.08a6.09,6.09,0,0,0,4.94,5.94,6.2,6.2,0,0,1-1.62.21,6.34,6.34,0,0,1-1.16-.11,6.16,6.16,0,0,0,5.75,4.21,12.46,12.46,0,0,1-7.65,2.6A11.8,11.8,0,0,1,12,33.22a17.6,17.6,0,0,0,9.43,2.72A17.25,17.25,0,0,0,38.92,18.7c0-.26,0-.52,0-.78A12.38,12.38,0,0,0,42,14.78a12.27,12.27,0,0,1-3.54,1A6.12,6.12,0,0,0,41.15,12.39Z"/></svg>