<?xml version="1.0" encoding="utf-8"?>
<!-- Generator: Adobe Illustrator 25.0.0, SVG Export Plug-In . SVG Version: 6.00 Build 0)  -->
<svg version="1.1" id="Layer_1" xmlns="http://www.w3.org/2000/svg" xmlns:xlink="http://www.w3.org/1999/xlink" x="0px" y="0px"
	 viewBox="0 0 54 47.9" style="enable-background:new 0 0 54 47.9;" xml:space="preserve">
<style type="text/css">
	.st0{fill:#FF7F32;}
	.st1{fill:#FFFFFF;}
</style>
<path class="st0" d="M38.3,0H15.6c-1.5,0-3,0.8-3.8,2.2L0.6,21.8c-0.8,1.3-0.8,3,0,4.3l11.3,19.6c0.8,1.3,2.2,2.2,3.8,2.2h22.6
	c1.5,0,3-0.8,3.8-2.2l11.3-19.6c0.8-1.3,0.8-3,0-4.3L42,2.2C41.3,0.8,39.8,0,38.3,0z"/>
<g>
	<path class="st1" d="M42.9,31.1c0,2.2-1.8,4-4,4H15c-2.2,0-4-1.8-4-4V16.8c0-2.2,1.8-4,4-4h23.9c2.2,0,4,1.8,4,4V31.1z"/>
	<g>
		<path class="st0" d="M32.2,24.4c0.5-0.3,0.5-0.7,0-1L25,19.3c-0.5-0.3-0.9,0-0.9,0.5v8.3c0,0.5,0.4,0.8,0.9,0.5L32.2,24.4z"/>
	</g>
</g>
</svg>
